<svg version="1.1" baseProfile="tiny" xmlns="http://www.w3.org/2000/svg" xmlns:xlink="http://www.w3.org/1999/xlink" viewBox="0 0 277.7 320.7" overflow="visible" xml:space="preserve">
    <g id="tush">
    <path id="body" fill="#EE2A7B" stroke="#000" stroke-width="2.8346" stroke-linecap="round" stroke-linejoin="round" stroke-miterlimit="10" d="M147.1,244.3c2.7,4.2,8.4,11.6,16.9,16.9c2.1,1.3,24.6,15,47,4.8c16-7.3,22.2-22.5,25.3-30c8.1-20,4.3-38.3,1.3-52.8c-2.1-9.9-6.5-25.3-17-42.3c-17.9-6.1-48.5-16.2-85.3-14.5c-42,2-92.1,23.9-92.1,23.9s-13.4,42.9-5.3,73.8 c1.6,6.1,4.4,16.2,12.5,26.5c3.1,4,10.4,13,23.3,18.5c17.3,7.4,33,3.6,39.3,2c6.1-1.6,20.9-5.4,29.5-17.8 C145,249.6,146.6,245.7,147.1,244.3c3.3-8.7,3.8-15.7,3.8-20.2c0-4.6-0.3-6.3-1.6-12.8"/>
    <g id="limbs" stroke="#000" stroke-width="5.6693" stroke-linecap="round" stroke-linejoin="round" stroke-miterlimit="10">
        <line class="left  arm" x1="3.9" y1="158.7" x2="52.1" y2="207.4" transform="rotate(0 52.1 207.4)">
        <animateTransform attributeType="XML" attributeName="transform" type="rotate" values="0 52.1 207.4; 20 52.1 207.4; 0 52.1 207.4" dur="0.25s" repeatCount="indefinite" fill="freeze" begin="body.mouseover" end="body.mouseout"/>
        </line>
        <line class="left leg" x1="90.7" y1="269.2" x2="89.6" y2="317.9"/>
        <line class="right  leg" x1="197.4" y1="265.4" x2="197.4" y2="313.7"/>
        <line class="right arm" x1="233.5" y1="193.7" x2="274.9" y2="143.7" transform="rotate(0 233.5 193.7)">
        <animateTransform attributeType="XML" attributeName="transform" type="rotate" values="0 233.5 193.7; 20 233.5 193.7; 0 233.5 193.7" dur="0.25s" repeatCount="indefinite" fill="freeze" begin="body.mouseover" end="body.mouseout"/>
        </line>
    </g>
    <g class="left eye">
        <circle cx="195" cy="171.1" r="5.5"/>
        <rect fill="#FFF" x="193.4" y="167.7" width="4.9" height="4.9" transform="matrix(0.7071 0.7071 -0.7071 0.7071 177.6628 -88.6174)" />
    </g>
    <g class="right eye">
        <circle cx="96.2" cy="162.7" r="5.5"/>
        <rect fill="#FFF" x="94.7" y="159" width="4.9" height="4.9" transform="matrix(0.7071 0.7071 -0.7071 0.7071 142.6375 -21.4131)"/>
    </g>
    <path id="mouth" d="M136.6,181.7c3.4,0.4,7.7,0.9,12,0.8c3.8,0,10.3-0.8,10.3-0.8s1.3,6.6-1.5,10.1c-4.3,5.4-14.9,4.7-19.1-1C135.8,187.3,136.4,183,136.6,181.7z"/>
    </g>
    <g id="text" fill="#fff">
    <path d="M52.4,132.7c-2-2.7-5-6.8-8.8-12.3l-8.9-12.1c-3.3-4.4-8.4-11-15.3-19.6C13.3,81.1,8.2,74.6,4.1,69.2c-3.4-4.6-4.3-7.5-2.7-8.7c4.2-3.2,8.5-4.3,12.9-3.3c4.4,1,8.3,3.7,11.6,8.2c3.8,5.1,5.8,11.9,5.8,20.4c5.9,0.8,10.7,2.2,14.3,4.2c3.7,2,7.1,5.1,10.3,9.4c2,2.6,3.4,4.7,4.5,6.4c1,1.7,1.8,3.3,2.4,5c0.6,1.7,0.9,3.4,0.9,5c0,1.6-0.4,3.4-1,5.3c-0.6,1.8-1.6,4-2.9,6.4c-0.6,0.8-1.1,1.4-1.5,1.9c-0.6,0.9-1.1,1.6-1.5,1.9l-0.2,0.1C54.6,133.2,53.1,133.6,52.4,132.7z M28,85c0.4-2.2,0.2-4.5-0.5-7.1c-0.6-2.5-1.4-4.9-2.4-7.2c-1.1-2.3-2.2-4.3-3.5-6c-1.7-2.2-4.1-3.7-7.2-4.4c-3.1-0.7-5.7-0.3-7.7,1.2c-1.6,1.2-1.4,3.2,0.6,6c3.2,4.2,6.1,8,8.8,11.3L25,90l0.4-0.1C26.8,88.8,27.7,87.2,28,85z M59.2,120.8c0.8-2.7,0.9-5.5,0.4-8.4c-0.6-2.9-1.8-5.6-3.7-8.1C47.4,92.9,39.5,88.2,32.3,90c-0.5,0.4-1.2,1.2-2.1,2.3c-0.8,1.2-1.4,1.9-1.8,2.2c8.1,10.1,16.7,21.1,25.7,33l0.3-0.2l0.4-0.1C56.9,125.6,58.4,123.4,59.2,120.8z"/>
    <path d="M92.5,113c-1.8-0.2-3.3-0.7-4.7-1.6c-1.4-0.8-2.7-1.9-4.1-3.2c-1.3-1.4-2.5-2.8-3.6-4.3c-1.7-2.3-3.3-5.3-5.1-8.9l-1.5-3.4c-0.3-0.7-0.5-1.2-0.6-1.4c-0.1-0.2-0.2-0.4-0.2-0.4c-1.7-3.5-5-11.4-10-23.7C57.8,53.6,54.1,44,51.6,37l-0.3-0.8L51,35.4c-0.7-1.9-0.5-3.1,0.6-3.5c1.6-0.6,2.7,0.1,3.3,1.9l0.3,0.8l0.2,0.9c3.1,8.7,7,18.8,11.7,30.5c4.7,11.7,8.3,20,10.7,25.1c1.5,3.2,3.4,6.3,5.5,9.4c1.4,2.1,2.8,3.8,4,5.1c1.3,1.3,2.7,2.3,4.1,2.9c1.8,0.7,3.3,0.9,4.6,0.4c1.3-0.5,2.3-1.2,3.1-2.1c0.8-1,1.3-2,1.5-3.2c0.2-1,0.3-2.2,0.2-3.7c-0.1-1.4-0.4-2.8-0.7-4c-0.2-0.8-0.6-2-1.2-3.7l-4.6-12.8c-2-5.7-4.7-12.6-7.9-20.8l-5.6-14.2L77.3,35c-1.7-4.1-3-7.2-3.7-9.4c-0.3-0.8-0.3-1.5,0-2.1c0.3-0.6,0.7-1,1.3-1.2c0.6-0.2,1.2-0.2,1.8,0.1c0.6,0.3,1,0.9,1.3,1.7l3,8.5c1.3,3.7,2.6,7.1,3.7,10.1l3.6,10.1c2.6,7.3,4.9,13.6,7,19c2,5.5,4.3,11.7,6.7,18.6c0.7,1.9,1.2,3.5,1.5,5c0.4,1.5,0.6,3.1,0.7,4.8c0.2,2,0.1,3.7-0.2,5.2c-0.3,1.5-1,2.9-2,4.2c-1.1,1.3-2.6,2.3-4.3,2.9C96,113,94.3,113.2,92.5,113z"/>
    <path d="M145.2,104.9c-0.5-0.6-0.8-1.2-1-1.9l-0.4-2.3c-0.2-1-0.4-1.5-0.4-1.8c-8.9-31.8-13.7-49.7-14.6-53.6c-0.7-2.9-2.3-10.8-4.9-23.8c-0.1,0.5-0.1,2.1-0.1,4.9l0,43.1l0.2,17l0.2,16.9l-0.7,1l-2.7,0l-0.4-1c0.2-0.8,0.2-2.4,0.2-4.8L120.7,78l-0.2-20.7l0-15.6l0-11.3c-0.1-3.3-0.1-7.1-0.1-11.2c0-0.5,0-0.9-0.1-1.3l0-1.2c0-1,0.3-1.6,0.8-2c0.5-0.4,1.3-0.5,2.4-0.5c0.5,0,1,0.2,1.6,0.7c0.6,0.5,1,1,1.1,1.5l2.5,11.7c1.1,5.6,2.1,9.8,2.8,12.6c1.7,6.6,4.5,17.4,8.5,32.4c2.3,9.8,4.3,17.4,6.2,22.6c0.5-1.2,0.7-3.1,0.7-5.7c0-7.7,0.1-14.6,0.3-20.7l0.3-20.7c0-3.4,0-6.5,0.1-9.3l0-9.2l-0.1-16.8c0.4-1.1,1.2-1.7,2.5-1.7c0.6,0,1,1.2,0.9,3.5c0,1,0,1.9-0.1,2.5c0,0.6,0,1.1-0.1,1.4c0,0.3-0.1,0.5-0.1,0.5l0,7.6c0,10.6-0.1,20-0.2,28.2c-0.1,8.3-0.1,17.7-0.1,28.1c0,2-0.1,5.1-0.4,9.4l-0.2,9.4c0,2.3-1,3.5-3.1,3.4C146.2,105.7,145.6,105.4,145.2,104.9z"/>
    <path d="M166.3,111.2c-0.7-0.3-1.4-0.8-2.1-1.5c-0.8-0.7-1.3-1.6-1.5-2.6c0.3-0.9,0.8-1.2,1.7-1c0.8,0.3,1.8,0.9,2.9,1.8c1,1,2,1.6,2.8,1.9c1.7,0.5,3.4,0.3,5.2-0.6c1.8-0.9,3.5-2.4,4.9-4.3c2.8-3.9,4.8-7.5,5.8-10.8c1.1-3.7,1.8-7.6,1.9-11.8c0.1-4.1-0.2-8.1-0.9-12c-0.1-1-0.4-2.4-0.8-4.4c-0.7-4.4-1.3-7.8-1.6-10.2c-0.3-2.4-0.5-5-0.4-7.9c0-3.7,0.6-7.6,1.8-11.5c0.8-2.5,1.9-4.8,3.4-6.9c1.5-2.1,3.4-3.7,5.7-4.8c2.4-1.2,4.8-1.4,7.2-0.7c0.9,0.3,1.9,1,3,2.1c1.1,1.1,1.5,2,1.3,2.7c-0.2,0.6-0.5,0.8-1,0.7c-0.5-0.1-1-0.5-1.6-1.1c-0.6-0.6-1.2-1-1.8-1.2c-1.7-0.5-3.5-0.4-5.2,0.5c-1.7,0.9-3.2,2.2-4.4,3.9c-1,1.4-1.8,3.1-2.4,5c-0.9,3-1.5,6.1-1.7,9.5c-0.2,3.4-0.1,6.6,0.4,9.8l1.4,9.5l0.4,2.7c0.6,3.8,1,6.8,1.2,9.2c0.2,2.4,0.2,5,0,7.9c-0.3,3.8-0.9,7.4-1.9,10.6c-1.4,4.4-3.9,8.5-7.6,12.4c-1.8,1.8-3.9,3.2-6.2,3.9c-2.3,0.8-4.6,0.8-6.9,0.1C168,112,167,111.6,166.3,111.2z"/>
    <path d="M200.8,122.9l-1-1.4c-0.2-0.4-0.3-1.4-0.4-3.1c0.4-0.7,1.2-1.2,2.3-1.5c1.1-0.3,2-0.3,2.7,0.1c1,0.6,1.5,1.4,1.6,2.4c0.1,1-0.1,2.1-0.8,3.2c-1,1.7-2.4,2.1-4.1,1.1C201.2,123.3,201.1,123,200.8,122.9z M211,105.8l0-0.3l14.6-24.6l5.4-8.6l5.2-8.8c1.8-3.1,3.3-5.8,4.5-8.3l1.4-2.9L245,47c0.4-0.7,1.1-1.1,2.2-1.3c1.1-0.2,1.9,0,2.6,0.4c0.9,0.5,1.1,1.2,0.5,2.1c-3.6,6-8.7,14-15.5,23.9c-7.5,11-12.7,18.9-15.6,23.8l-1.1,2.1l-1.5,2.5c-1.7,2.9-3.2,4.7-4.4,5.6l0,0.7l-1.3-0.8L211,105.8z"/>
    </g>
</svg>