<?xml version="1.0" standalone="no"?>
<!DOCTYPE svg PUBLIC "-//W3C//DTD SVG 1.1//EN" "http://www.w3.org/Graphics/SVG/1.1/DTD/svg11.dtd">
<svg xmlns="http://www.w3.org/2000/svg">
<defs >
<font id="Gaegu" horiz-adv-x="808" ><font-face
    font-family="Gaegu Light"
    units-per-em="1000"
    panose-1="0 0 0 0 0 0 0 0 0 0"
    ascent="760"
    descent="-240"
    alphabetic="0" />
<glyph unicode=" " horiz-adv-x="420" />
<glyph unicode="!" horiz-adv-x="445" d="M278 546Q281 535 281 527Q281 512 277 498T268 472T258 447T251 421Q246 393 243 390Q244 385 244 381T245 371Q245 351 238 330T231 282Q231 277 231 273T232 264L229 226Q228 215 225 201T216 187Q210 187 205 193T197
208T193 227T191 247Q191 252 191 258T193 270Q191 285 190 298T189 322Q189 344 194 357Q193 362 193 367T192 378Q192 385 194 401T199 434T204 466T207 489Q211 512 214 525T223 544T235 551T256 553Q271 553 278 546ZM250 40Q250 30 241 25T223 19Q218 19 210
20T193 26T179 37T173 55Q173 71 182 85T207 99Q213 99 220 99T234 93T245 75T250 40Z" />
<glyph unicode="&quot;" horiz-adv-x="437" d="M304 675Q305 666 305 658T306 643Q306 617 303 595T297 541Q297 538 297 531T294 516T287 503T277 497Q271 497 268 507T262 530T258 554T257 568V577Q257 586 256 599T253 625T250 649T249 665Q249 679 257 683T276
688Q297 688 304 675ZM184 675Q185 666 185 658T186 643Q186 617 183 595T177 541Q177 538 177 531T174 516T167 503T157 497Q151 497 148 507T142 530T138 554T137 568V577Q137 586 136 599T133 625T130 649T129 665Q129 679 137 683T156 688Q177 688 184 675Z"
/>
<glyph unicode="#" horiz-adv-x="733" d="M626 426Q612 422 603 420T580 414T545 407T488 396Q483 381 483 303Q488 293 488 261Q488 250 488 238T486 212Q495 216 544 220Q547 220 561 220T591 220T619 216T632 207Q632 199 625 189H620Q611 189 594 188T556
184T516 181T484 179L494 0Q488 -21 470 -21Q464 -21 461 -13T455 9T451 36T447 62V61Q446 71 445 84Q444 95 444 111T443 147Q443 155 443 162T444 175L407 171Q399 170 393 170T381 169Q363 169 356 173Q353 172 270 163Q267 97 267 59Q267 45 267 35T269 18Q262
5 247 5Q237 5 232 12T225 31T223 55T223 81Q223 97 224 116T228 158H202Q190 158 176 158T145 156Q141 156 131 156T109 157T89 162T80 174Q80 182 86 185T101 190T123 191T148 191L228 198Q229 208 229 219T230 242Q230 265 228 271Q228 271 228 280T230 302T232
329T234 353Q217 352 195 348T144 343Q128 343 112 344T96 354Q96 360 98 365T104 373L234 395V437Q234 453 233 461T233 470Q233 474 233 486T236 513T243 538T254 549Q263 549 267 542T272 526T274 507T276 492V471Q276 457 276 441T275 405H282Q293 405 313
406T365 412L436 424Q433 458 433 483Q433 491 433 509T434 546T440 579T454 593Q470 593 472 574T479 526Q476 511 476 488Q476 463 479 430Q524 443 545 443Q552 443 554 442Q587 454 617 454Q625 454 629 452T633 439Q633 429 626 426ZM445 209Q443 220 442
232T440 260V293Q442 298 442 308T442 337V388Q426 384 407 381T362 372H358Q349 372 329 370T276 362Q276 300 271 288V289Q270 280 270 267Q269 256 269 240T268 200Q304 201 327 202T366 205T396 208T425 209H445Z" />
<glyph unicode="$" horiz-adv-x="669" d="M311 510Q278 505 255 495T217 471T195 445T188 419Q188 385 214 359T307 314Q309 355 315 368Q309 389 309 447Q309 461 309 476T311 510ZM343 39Q354 39 374 43T415 53T453 67T477 80Q485 91 491 111T497 158Q497 176
486 192T454 221T407 246T348 263Q349 245 349 230T350 203Q350 163 345 155Q346 147 346 138T347 118Q347 101 346 82T343 39ZM549 185V143Q546 89 506 53T376 0L342 -2V-19Q342 -29 342 -43T341 -69T336 -90T325 -99Q316 -99 311 -91T304 -68T301 -37T301 -2Q254
-1 217 5T150 23L107 42Q88 50 74 60T60 83Q60 101 79 105Q102 98 117 93T143 82T161 71T175 58Q196 50 227 45T302 39Q304 68 306 99T309 161Q309 200 303 238Q306 248 306 275L246 291Q227 296 210 304T179 321Q138 388 138 414Q138 457 169 485L224 524Q256
534 311 540Q311 558 312 575T315 605T321 627T331 635Q345 635 347 624T350 593Q350 583 350 571T348 544Q358 545 365 545T380 546Q392 546 413 541T455 527T491 510T506 492Q506 476 488 475Q467 483 437 493T364 516Q362 516 358 516T346 515Q347 482 347 431T347
308V303Q402 290 438 276T498 246T533 215T549 185Z" />
<glyph unicode="%" horiz-adv-x="762" d="M672 146Q672 121 664 98T642 56T611 26T577 14Q538 14 480 45Q456 62 433 142Q452 232 503 258Q506 258 520 259T549 261T578 263T595 264Q606 262 619 249T644 217T663 179T672 146ZM632 150Q620 218 556 230Q540 227
525 217T499 193T480 167T473 145Q473 114 511 68Q557 52 571 52Q573 52 574 52T576 53Q634 81 634 132Q634 137 634 141T632 150ZM555 515Q544 489 528 469T494 428Q484 416 475 404T454 377T430 342T398 294Q374 256 361 246Q360 237 351 220T331 184Q318 163
302 140Q297 127 286 106T262 63T234 24T208 0Q190 2 189 27Q191 36 196 46T211 74T237 119T281 191Q283 198 296 219T325 265T354 309T368 333Q367 332 372 339T385 358T404 384T424 410T441 431T452 441Q471 486 528 537Q534 539 536 539Q553 539 555 515ZM301
451Q301 395 268 346Q263 343 253 340T232 333T211 328T197 325Q179 325 160 333T126 353T100 382T90 417Q90 462 122 506Q146 522 188 542Q245 542 269 494Q289 480 301 451ZM268 418Q268 422 266 430T261 447T256 465T253 482Q229 497 201 497Q184 497 171 493T143
465Q128 442 128 431Q128 421 134 409T151 385T175 367T202 359Q230 359 249 376T268 418Z" />
<glyph unicode="&amp;" horiz-adv-x="751" d="M655 33Q661 25 661 16Q661 5 658 2T646 -2Q630 -1 617 3T588 17T552 46T504 93Q460 43 420 15Q386 -21 288 -29Q244 -23 216 -16T168 0T136 24T110 62Q99 79 95 95T90 128Q90 147 100 176T134 236T193 299T283 355Q272
365 262 376T245 404L231 437Q229 443 229 462Q229 472 229 485T231 516L258 564Q272 584 291 595T329 606Q336 606 346 604T366 598T385 591T398 587Q406 581 414 571T430 548T442 522T447 497Q447 471 444 452T429 415T397 381T344 341Q355 324 369 305T400 266L441
217Q449 210 463 195T500 157Q514 173 529 193T564 238Q566 242 574 258T591 291T611 322T627 336Q646 336 646 314Q646 312 641 302T629 278T613 249T597 222T586 201T581 194Q549 159 530 122L572 80Q605 47 655 33ZM406 493Q404 508 397 521T379 543T356 558T334
564Q320 564 309 556T288 535T274 505T269 471Q269 460 271 450T277 430T283 415T286 409Q295 386 313 370Q406 410 406 482V493ZM472 116Q468 121 454 138T413 184L375 236Q367 243 351 264T308 322Q274 311 245 291T194 246T160 190T148 126Q148 73 182 44T273
14Q336 14 388 42T472 116Z" />
<glyph unicode="&apos;" horiz-adv-x="317" d="M184 675Q185 666 185 658T186 643Q186 617 183 595T177 541Q177 538 177 531T174 516T167 503T157 497Q151 497 148 507T142 530T138 554T137 568V577Q137 586 136 599T133 625T130 649T129 665Q129 679 137 683T156
688Q177 688 184 675Z" />
<glyph unicode="(" horiz-adv-x="440" d="M319 -71Q320 -73 320 -76Q320 -95 298 -95Q291 -95 282 -89T263 -73T244 -53T229 -36Q191 10 186 55Q163 70 150 105T131 182T123 263T120 327Q126 360 138 409T172 508T223 597T293 650Q295 650 296 650T300 651Q318
651 318 631Q318 625 311 615T293 593T270 569T249 545Q226 503 211 467T188 398T176 338T173 286Q173 283 173 262T178 211T190 147T213 84L254 13Q252 14 261 4T283 -20T306 -49T319 -71Z" />
<glyph unicode=")" horiz-adv-x="440" d="M321 219Q318 200 311 171T294 110T269 43T236 -21T194 -73T144 -104Q141 -105 137 -105Q120 -105 120 -86Q120 -80 128 -69T148 -44T173 -16T196 11Q218 53 230 76T248 113T256 140T263 175Q267 199 269 220T271 259Q271
262 271 282T266 333T255 397T232 461L191 532Q189 535 179 548T156 576T135 605T125 623Q125 641 145 641Q147 641 151 639Q260 562 267 492Q275 486 284 471T300 437T313 399T321 364Q320 350 320 335T320 301Q320 283 320 263T321 219Z" />
<glyph unicode="*" horiz-adv-x="551" d="M429 476Q429 475 429 474T430 472Q430 462 411 451Q387 455 352 483L293 508Q293 456 293 435T295 407T296 397T297 382Q297 371 292 369T277 366Q268 366 263 370T256 381T253 394T253 406Q253 417 256 426V511Q230
488 214 470T187 440T169 420T153 413Q139 413 139 427Q139 436 145 445T175 477L229 529Q193 557 128 576Q119 580 119 596Q119 615 133 615Q145 615 177 598T250 561Q250 652 237 685Q240 710 264 710Q279 710 286 697Q285 684 285 664T284 617Q284 606 284 594T285
568Q340 632 382 662H385Q396 662 404 642Q399 633 383 617T349 585T317 557T300 542Q322 536 356 518T429 476Z" />
<glyph unicode="+" horiz-adv-x="620" d="M507 275Q501 269 485 266T451 260T420 258T408 257Q395 257 376 258T330 261Q330 209 330 175T328 121T321 93T306 85Q297 85 290 88T283 108Q283 121 284 140T290 186Q289 189 289 199Q289 219 290 236T292 259Q259
260 234 260T188 260Q168 260 155 260T136 259Q110 264 110 283Q110 298 126 298Q169 298 189 297T224 295Q238 295 255 296T292 299Q289 341 289 362Q289 378 290 380T291 389Q291 413 285 452Q289 473 307 473Q317 473 321 468T328 448T330 409T333 346V297Q347
297 366 297T411 299Q413 299 415 299T419 298Q426 298 438 299T463 301T485 303T493 304Q509 301 509 286Q509 283 507 275Z" />
<glyph unicode="," horiz-adv-x="349" d="M214 78Q217 72 217 62Q217 48 215 34T207 5T190 -30T159 -75H157Q151 -75 145 -69L164 -27Q168 -20 172 -5T181 33Q177 32 169 32Q161 32 143 44L133 72Q134 78 144 92T175 106Q199 106 214 78Z" />
<glyph unicode="-" horiz-adv-x="620" d="M485 261Q480 260 476 260T466 259Q455 259 440 260T411 262T385 264T365 265Q343 265 325 265T283 263T229 259T151 254Q130 255 130 273Q130 284 138 290T161 298T193 301T230 302Q238 302 246 302T263 301Q314 301
392 304Q409 303 430 301T478 296Q489 285 489 274Q489 266 485 261Z" />
<glyph unicode="." horiz-adv-x="343" d="M210 30Q210 20 201 15T183 9Q178 9 170 10T153 16T139 27T133 45Q133 61 142 75T167 89Q173 89 180 89T194 83T205 65T210 30Z" />
<glyph unicode="/" horiz-adv-x="459" d="M419 599Q415 586 411 577T400 557T383 528T356 483T317 412T261 307Q261 306 253 286T233 241T211 195T194 170Q183 140 158 94T103 -20Q99 -29 93 -39T81 -59T68 -74T56 -81Q41 -81 40 -65Q47 -4 128 127Q143 151 154
172T176 215T199 264T227 325Q237 345 248 362T260 382Q260 404 278 439L322 511L350 567Q359 585 372 602T398 619Q416 619 419 599Z" />
<glyph unicode="0" horiz-adv-x="573" d="M473 285Q471 262 463 234T445 177T421 123T395 82Q363 59 345 47T314 29T290 22T260 21Q234 21 206 33T152 67T108 117T86 179Q69 230 69 272Q69 325 92 371T170 460Q197 482 221 493T265 510T303 516T333 517Q372 517
397 507T437 470T460 399T473 285ZM415 213Q431 255 431 305Q431 334 424 364T405 420T374 462T335 479Q182 479 127 340Q116 312 116 277Q116 252 122 221T135 158Q190 61 260 61Q308 61 348 101T415 213Z" />
<glyph unicode="1" horiz-adv-x="407" d="M241 519V514Q241 505 237 478T227 419T218 362T213 328Q213 318 214 314Q212 309 211 300T210 277Q210 265 210 251T211 225Q211 213 211 205T209 191Q221 126 221 92Q221 66 214 54T189 42Q180 42 176 49T171 69T169
95T167 121Q167 123 167 127T168 136Q168 166 166 193T164 229Q164 267 172 281Q168 294 168 315Q168 323 169 338T173 368T177 395T179 409Q179 414 180 434T185 476T198 517T221 535Q240 535 241 519Z" />
<glyph unicode="2" horiz-adv-x="522" d="M425 21Q416 17 405 17Q389 17 381 17T368 18T358 18T344 19Q335 19 326 19T305 18Q289 18 274 22T242 31Q234 28 223 28Q205 28 194 29T173 31T149 35T113 41Q103 50 103 64Q103 74 107 85Q140 116 157 135T186 172T213
208T257 257Q261 261 269 271T286 295T304 321T322 344Q357 385 357 435Q357 462 344 478T292 495Q274 495 254 491T216 480T181 464T155 443Q152 438 145 424T128 394T110 367T93 355Q83 355 77 362T70 381Q70 393 78 411T99 446T124 476T146 493Q220 534 304
534Q331 534 350 526T380 504T396 470T401 429Q401 374 366 336Q355 324 346 310T328 284T313 261T304 248Q275 231 221 146Q199 127 184 110T160 75Q196 74 246 66Q257 63 266 61T286 59Q297 59 308 62Q313 62 319 62T334 61Q351 61 372 62T419 63Q433 63 433
38Q433 24 425 21Z" />
<glyph unicode="3" horiz-adv-x="531" d="M357 5Q343 -10 315 -25T254 -52T185 -72T123 -80Q83 -80 83 -62Q83 -45 102 -44Q144 -40 166 -38T193 -34Q219 -29 253 -12T317 30T368 83T389 139Q392 161 392 179Q392 232 367 256T293 280Q272 280 193 265Q179 270
179 290Q182 293 194 299T223 314T254 331T278 349Q328 401 328 443Q328 474 302 493T233 512Q222 512 213 512T194 508T171 496T138 471Q118 454 108 442T91 423T79 411T65 407Q45 407 45 433Q52 449 68 469T108 508T163 540T230 553Q259 553 285 552T332 542T363
510T375 445Q375 431 370 415T350 372Q337 349 330 337T322 321Q352 310 375 299T414 273T438 239T446 192Q446 109 357 5Z" />
<glyph unicode="4" horiz-adv-x="554" d="M508 145Q493 142 467 142Q458 142 446 142T425 143Q413 143 404 143T388 142Q385 69 362 -19Q355 -23 343 -23Q331 -23 327 -19Q328 9 334 50T352 145Q323 141 303 139T271 137Q267 137 261 138T242 139T210 141T159
142Q150 142 133 144T100 152T72 163T60 177Q60 193 64 203T77 230T101 275T137 357L224 489Q227 493 234 493Q249 493 249 482Q249 467 228 430T169 339Q131 255 108 199Q123 171 154 171Q163 171 168 171T177 173T185 174T195 175Q206 175 219 174T247 170Q301
170 351 176Q352 196 354 223T361 284Q360 287 360 303Q360 344 363 374T366 413Q366 420 365 437T362 473T359 505T358 522Q361 527 371 527Q388 527 395 502T402 422Q402 404 401 380T399 321Q400 316 400 299Q400 282 399 263T397 226T395 197T394 182Q404 179
424 179T464 178T499 174T514 162Q513 153 508 145Z" />
<glyph unicode="5" horiz-adv-x="491" d="M380 85Q372 68 363 55T338 26T299 -7T240 -50L172 -86Q153 -96 139 -100T114 -105Q106 -105 105 -99T103 -88Q103 -76 121 -66T165 -43T222 -15T279 28L329 78Q357 121 357 158Q357 178 349 197T315 244Q285 276 256
287T189 298Q176 298 164 296T137 293Q117 293 89 308V307Q91 307 92 338T109 435Q114 461 117 475T121 491Q121 493 119 506T116 528Q116 537 120 542T130 548T142 550T152 550Q164 550 168 547T178 541T195 535T233 532Q238 532 240 532T248 533Q254 533 274
531T317 527T355 522T371 520Q382 518 382 504Q382 488 367 487Q347 488 319 489T242 493Q230 494 221 494T207 495Q182 495 168 487Q143 415 143 354Q143 341 146 335Q154 336 161 336T175 336Q203 336 232 332T288 317T339 284T380 229Q401 188 401 160Q401 133
380 85Z" />
<glyph unicode="6" horiz-adv-x="482" d="M121 251Q115 224 115 198Q115 136 140 97T221 58Q275 58 319 94L346 143Q354 157 357 170T361 194Q361 237 324 260T226 283Q216 283 198 278T162 266T132 255T121 251ZM399 206V196Q399 146 347 75L309 51Q279 32 253
29T211 25Q187 25 162 36T117 69T83 121T70 191Q70 224 76 257T99 328T144 406T216 496Q243 526 264 528Q273 539 290 554T326 583T361 608T385 621Q402 613 402 603Q402 600 399 596T386 582T360 559T316 523Q296 512 268 487Q257 476 248 469T234 456Q227 450
223 446L176 382Q156 356 146 334T134 295L131 287Q142 293 159 298T194 308T229 316T257 319Q270 319 285 314T316 303T345 290T366 282Q393 261 399 206Z" />
<glyph unicode="7" horiz-adv-x="475" d="M369 470Q374 465 374 453Q374 450 373 442T370 423T367 405T365 395Q363 388 353 345T324 220Q306 140 281 93Q277 48 236 -41Q230 -44 224 -44Q216 -44 206 -39Q208 12 218 28Q220 50 249 123Q259 183 278 225Q278 235
282 252T292 292L307 350Q314 376 316 397T319 435Q302 442 288 446T263 452L198 456Q195 456 170 453L138 449H129Q117 449 100 445T76 441Q64 441 52 447T40 466Q40 476 46 481T63 487T86 489T112 489H135Q159 495 182 495Q189 495 195 495T209 493Q217 493 223
493T236 494Q251 494 261 492L297 482H301Q319 482 369 470Z" />
<glyph unicode="8" horiz-adv-x="543" d="M454 117Q454 76 441 49T405 4T351 -20T282 -28Q276 -28 270 -28T256 -27L164 5Q132 17 114 31T86 61T73 94T70 129Q70 148 74 167T86 202T103 232T124 253Q137 262 161 276T221 310Q146 370 146 413Q146 449 163 477T207
525T267 555T332 568Q373 564 399 535T426 461Q426 458 423 444T412 410T391 370T360 337Q356 333 310 305Q335 294 359 278T402 245T433 209T448 176Q450 160 452 146T454 117ZM365 513Q348 526 318 526Q297 526 277 520T239 503T212 474T201 434Q201 373 259
330Q276 330 338 368Q376 438 376 478Q376 499 365 513ZM395 191Q342 262 271 283Q265 281 253 277T221 264L174 242Q121 210 121 136Q121 112 127 82Q138 68 158 55T201 32T250 17T297 11Q409 23 409 110Q409 130 395 191Z" />
<glyph unicode="9" horiz-adv-x="514" d="M370 357Q368 484 292 484Q246 484 167 425Q165 422 157 412T139 388T121 361T113 339Q113 325 120 314T138 296T163 285T191 281Q201 281 213 281T240 285T273 296T315 319L370 357ZM412 293Q411 270 407 246T395 197L371
126Q360 49 336 19Q334 6 325 -16T306 -59T285 -96T268 -112Q261 -112 255 -109T249 -99Q249 -98 250 -93T256 -76T268 -44T290 7Q294 13 300 29T311 62T322 94T330 114Q330 115 335 133T348 176T360 226T366 266V275L369 318Q345 297 318 284T269 263T231 252T215
249Q181 249 129 258Q120 259 110 270T90 295T75 323T69 348Q69 356 74 367T87 390T100 411T108 425L156 467Q178 485 194 496T225 513T252 521T280 523Q336 523 370 489T411 388Q412 365 412 341T412 293Z" />
<glyph unicode=":" horiz-adv-x="350" d="M213 420Q213 409 201 401T177 393Q157 393 135 432Q136 449 159 475Q193 475 203 461T213 420ZM215 104Q215 94 206 89T188 83Q183 83 175 84T158 90T143 101T137 121Q137 137 147 150T172 163Q177 163 184 162T198 156T210
139T215 104Z" />
<glyph unicode=";" horiz-adv-x="350" d="M213 420Q213 409 201 401T177 393Q157 393 135 432Q136 449 159 475Q193 475 203 461T213 420ZM214 148Q217 142 217 132Q217 118 215 104T207 75T190 40T159 -5H157Q151 -5 145 1L164 43Q168 50 172 65T181 103Q177
102 169 102Q161 102 143 114L133 142Q134 148 144 162T175 176Q199 176 214 148Z" />
<glyph unicode="&lt;" horiz-adv-x="450" d="M356 613Q357 611 357 608Q357 593 344 574T309 526T255 456T186 356Q152 301 144 276Q173 208 185 197Q196 177 211 151T246 93Q253 77 270 48T305 -9T336 -59T350 -80Q350 -88 345 -95T333 -102Q319 -102 302 -85T269
-40L187 98Q177 131 122 212Q93 253 93 289Q93 300 110 327T154 395Q154 396 164 411T187 443T210 474T221 488Q253 533 277 568T318 632Q322 633 325 633T331 634Q353 634 356 613Z" />
<glyph unicode="=" horiz-adv-x="620" d="M473 354Q468 353 464 353T454 352Q448 352 438 353T416 355T393 358T374 359H333Q325 359 320 359T309 360Q277 360 265 354L162 347Q139 349 139 368Q139 381 151 387T179 396T211 399T237 400Q242 400 248 400T262
399Q303 399 372 402L465 393Q477 382 477 368Q477 361 473 354ZM475 164Q456 161 449 160T437 158T425 157T398 157T342 156T243 154Q189 151 164 151Q143 151 138 158T132 176Q132 184 135 187T149 192T182 194T242 197H259Q280 197 305 198T360 202L469 205Q489
203 489 189Q489 178 475 164Z" />
<glyph unicode="&gt;" horiz-adv-x="450" d="M363 261Q362 254 357 239T336 201L307 155Q307 153 298 138T278 105Q265 84 249 59Q236 39 214 -1T157 -102Q153 -103 150 -103T144 -104Q135 -104 127 -98T119 -78Q119 -58 152 -5T240 131Q272 180 290 215T314 275L266
350Q266 350 255 366T232 403T209 439T199 455Q185 482 137 542L87 605Q87 606 87 607T86 609Q86 617 91 623T102 630Q126 630 161 585T259 450Q270 417 331 337Q361 291 363 261Z" />
<glyph unicode="?" horiz-adv-x="544" d="M444 463Q438 438 431 418T412 380T385 347T344 315Q315 297 300 285T276 263T265 247T261 230Q259 221 259 212T255 196T247 184T231 179Q217 179 215 189T212 210Q212 223 216 239T231 272T258 305T298 332Q321 343
334 353T356 376T375 409T398 457Q398 483 387 503T357 538T318 560T279 568Q250 568 230 562T195 542T167 510T140 466Q136 459 126 459Q103 459 100 482Q117 526 142 551T194 589T244 605T282 608Q328 608 357 596T403 563T429 516T444 463ZM265 8Q265 -2 255
-8T236 -14Q232 -14 231 -13L208 -9Q193 -7 187 1T181 24Q181 41 192 55T219 69Q225 69 232 69T247 63T260 45T265 8Z" />
<glyph unicode="@" horiz-adv-x="765" d="M665 290Q662 265 653 239T630 192T595 157T550 143Q539 143 529 146T511 158T497 184T486 231Q476 217 461 198T426 155L388 134Q375 127 363 124T342 121Q291 121 266 145T240 225Q240 261 252 293Q299 417 398 417Q412
416 427 414T461 401L496 382Q510 362 510 332Q510 320 507 310L516 235Q526 183 556 183Q567 183 579 190T602 210T620 244T627 290Q627 335 589 437Q560 468 514 487T423 506Q385 506 345 493T269 458T206 405T167 341Q137 254 137 195Q137 151 155 119T207 65T287
33T388 22Q529 25 605 82Q607 82 608 82T611 83Q623 83 623 67Q623 64 621 60Q576 28 514 7T383 -14Q352 -14 240 6Q195 33 167 56T124 101T104 146T99 198Q99 264 124 326T193 437T299 514T435 543Q472 543 512 529T586 484T642 405T665 290ZM465 341Q435 372
395 372Q360 372 338 355T302 314T284 267T279 232Q279 210 285 197T302 176T325 166T350 163Q378 163 400 179T436 219T457 272T465 325V341Z" />
<glyph unicode="A" horiz-adv-x="536" d="M481 -28Q470 -27 463 -22Q454 1 439 41T411 132Q397 172 380 185L296 181Q266 179 239 176T187 167T145 155T117 141Q110 112 102 78T83 4Q80 -5 63 -5Q50 -5 50 3Q50 26 78 123Q77 128 77 132T77 141Q77 152 80 171T88
208T97 242T101 260Q105 273 113 295T136 352Q139 367 148 390T169 439T190 486T203 520Q208 537 230 537Q239 537 241 538T247 532T263 503T304 437Q350 366 351 345Q354 340 362 324T380 289T398 253T411 232Q421 218 430 196T446 152T458 111T467 86Q468 80
473 66T483 37T492 9T497 -10Q497 -16 495 -22T481 -28ZM365 222Q350 261 339 288T315 343T283 402T235 481Q225 467 210 433T178 358T148 273T128 195Q135 195 148 197T177 202T204 207T220 209Q227 209 233 207Q241 209 256 210T289 212T327 215T365 222Z" />
<glyph unicode="B" horiz-adv-x="573" d="M513 171Q513 155 505 133T476 87T421 39T335 -4Q304 -12 267 -22T185 -47L144 -51H135Q114 -51 105 -45Q100 -26 98 -10T95 19Q95 27 96 33T99 45Q98 49 98 56T97 76Q97 107 98 130T102 173T105 210T107 248Q107 262
107 277T106 310Q112 373 118 465Q116 476 113 489T105 519L96 533Q90 540 90 545Q90 551 96 556T112 564T133 570T155 573Q206 597 257 597Q263 597 272 597T294 596T321 588T353 569L390 539L404 514Q412 496 412 479Q412 454 398 428T348 368Q457 330 474 311Q487
295 497 257T513 171ZM362 502Q360 509 353 519T334 540T305 557T268 564Q253 564 237 562T207 555T181 546T164 535Q158 517 156 483T153 385Q153 365 155 355T161 343Q203 349 224 352T258 360T280 372T306 392Q366 422 366 473Q366 487 362 502ZM461 140Q467
156 467 177Q467 212 458 237T432 280T395 309T348 326Q331 331 319 333T298 335Q290 335 271 331T230 320T186 309T149 302V272Q149 233 144 189T138 89Q138 73 139 56T140 27Q140 19 140 12T139 0Q157 -3 174 -3Q192 -3 219 3T272 16T316 30T337 37Q354 44 374
57T412 84T443 113T461 140Z" />
<glyph unicode="C" horiz-adv-x="547" d="M487 127Q486 117 474 102T445 70T408 41T372 21Q316 -3 246 -3Q227 -3 212 -2T182 4T154 19T121 49Q100 71 88 92T70 132T62 168T60 201Q60 236 69 285T114 398Q146 454 146 454L209 493Q241 511 269 523T332 535Q340
535 358 535T394 532T426 523T440 506Q440 488 417 485Q416 485 404 486T376 488T345 491T322 492Q294 492 271 482T217 450L166 408L141 353Q130 330 124 314T118 289Q108 269 108 227Q108 196 114 167T130 114T154 73T184 50Q208 40 244 40Q288 40 360 60Q413
90 447 148Q454 154 463 154Q472 154 479 147T487 131V127Z" />
<glyph unicode="D" horiz-adv-x="572" d="M512 314Q511 278 503 251T478 195T437 136T378 60Q375 58 360 48T327 24T289 0T259 -12Q214 -18 160 -40Q126 -40 120 -16Q121 -9 121 -1T121 17Q121 66 111 136T100 293Q100 332 104 383T117 498Q121 506 130 511T154
517Q172 517 185 504Q249 525 300 525Q333 525 362 518T414 498T455 472T480 444Q497 397 504 366T512 314ZM465 342Q463 366 457 384T438 418T404 446T351 475Q330 485 296 485Q291 485 281 484T256 480T224 477T189 475Q173 475 166 478Q143 415 143 270Q143
258 144 229T148 162T158 85T175 11Q215 13 311 67Q331 78 359 106T423 179Q430 188 437 205T451 244T461 288T465 328V342Z" />
<glyph unicode="E" horiz-adv-x="493" d="M449 21Q464 13 464 -1Q464 -18 448 -23T401 -28Q391 -28 379 -28T357 -27Q344 -27 335 -27T318 -28Q316 -27 290 -26T212 -20Q177 -23 154 -23Q119 -23 109 -17Q104 18 101 49T98 110Q98 163 103 203T108 272Q108 305
103 322Q105 369 106 395T108 428Q114 504 130 533Q131 535 142 538T168 544T201 550T232 555T254 559T261 559Q267 561 289 563T334 568T376 571T393 572Q394 572 395 572T397 573Q406 573 406 554Q406 545 405 539T398 529T378 524T339 521Q314 520 298 518T273
515Q240 515 184 498Q177 491 172 474T162 437T156 396T154 364Q154 335 156 319T158 302Q203 302 233 307T283 312Q292 312 305 312T331 311T356 311T374 310Q384 309 384 293Q384 285 380 280T365 273T335 269T285 268Q263 268 251 265Q245 265 238 265T222 266Q211
266 197 266T165 264Q152 251 147 139V119Q147 85 144 33Q155 30 181 27T235 22T286 18T315 15Q316 15 330 16T374 19Q393 21 408 21T435 21H449Z" />
<glyph unicode="F" horiz-adv-x="499" d="M467 475Q468 472 468 466Q468 456 464 449T451 441Q446 441 434 444T408 452T379 459T355 463H346Q272 480 205 480Q197 480 190 480T174 479Q155 429 155 379V380Q154 372 154 361Q153 351 153 338T153 305Q153 279
159 267L267 269Q269 269 282 270T312 272T346 275T375 276Q399 276 399 257Q399 247 390 243T365 236T325 233T273 229H253Q234 229 211 228T158 224Q154 213 154 173Q154 92 155 92Q154 84 154 78T154 64Q154 13 167 -17Q164 -34 148 -34Q131 -34 122 -15T108
29T102 81T101 120Q101 131 102 165T103 257Q103 296 100 317Q103 464 133 522Q139 525 154 525Q158 525 171 524T198 521T226 518T246 516Q250 516 251 516T255 517Q277 517 340 501Q435 500 467 475Z" />
<glyph unicode="G" horiz-adv-x="622" d="M518 -63Q510 -72 500 -72Q494 -72 489 -71T481 -63T475 -43T473 -7Q473 -7 473 -2T473 12T474 31T475 51Q475 64 475 75T474 97Q381 19 334 14Q296 10 275 9T248 7Q215 7 181 21T120 59T76 116T59 185Q59 203 64 234T78
298T94 360T110 403Q118 418 131 433T163 466Q189 480 222 496T297 530L413 550Q464 546 493 536T522 503Q522 486 505 486Q490 486 471 493T430 501L369 503Q296 489 254 466Q227 460 201 439T153 382T118 300T105 198Q105 145 127 109T215 51Q224 47 244 47Q279
47 303 50T347 60T381 78T412 104L428 119Q439 130 450 130Q459 130 468 124Q468 151 471 201Q435 222 385 227L301 234Q291 244 291 254Q291 265 303 270Q333 268 353 267T384 266H392Q417 263 440 259T480 247T508 224T519 188Q519 157 509 134Q511 125 512 104T515
62T516 24T516 9Q515 6 515 -1Q515 -4 516 -10T517 -24T519 -39T520 -50Q520 -57 518 -63Z" />
<glyph unicode="H" horiz-adv-x="627" d="M503 -1Q491 -1 487 5L478 73V82Q478 89 478 96T476 114L470 160Q471 168 471 176T472 192Q472 230 459 267Q447 265 413 260T325 255Q305 255 294 256T273 259T251 262T214 265Q185 266 169 266T147 267Q141 196 141
152Q141 131 142 116T146 91Q157 -35 157 -35V-34V-38Q157 -47 145 -47Q128 -47 120 -36T109 2L106 62Q104 75 103 91T101 129V156Q101 170 101 180T100 197Q101 202 101 212T102 238V271Q102 305 112 328Q112 330 112 333T111 339Q111 367 113 386T118 422T124
455T129 493Q131 517 136 533T155 550Q160 550 166 546T172 533Q171 522 169 494T162 418L150 316Q161 308 180 304T216 298Q236 296 258 296Q273 290 299 290Q344 290 366 290T402 290T427 296T463 308Q464 314 464 320T464 332Q464 369 455 420V434Q455 471 448
498Q450 511 470 511Q484 511 490 495T497 452V439Q497 361 509 316Q509 289 511 251T517 162Q516 156 516 149T516 132Q516 123 516 113T517 89Q517 83 518 74T522 55T525 37T527 24Q527 -1 503 -1Z" />
<glyph unicode="I" horiz-adv-x="335" d="M251 515Q257 510 257 505Q257 493 243 482H229Q219 482 206 482T175 481Q183 443 184 407T189 356L192 256Q191 230 191 210T191 176Q191 146 192 143Q191 127 189 104T184 49L241 42Q250 36 250 25Q250 19 244 14T207
8L192 5Q179 4 161 3T117 0H113Q108 0 99 -2T82 -4Q75 -4 67 -2T58 10Q58 26 81 33T142 46V63Q142 106 148 157Q145 170 145 195Q145 209 146 231T148 268Q148 292 145 300V335Q145 356 144 377T142 417T139 447T138 460Q138 467 138 473T140 486Q127 485 117 485T99
485Q88 485 82 487T73 493T70 501T69 509Q69 517 76 523L131 526H142Q168 526 186 520Q231 520 251 515Z" />
<glyph unicode="J" horiz-adv-x="339" d="M290 542Q299 534 299 526Q299 516 286 500Q254 498 193 491Q202 449 207 411T216 342T219 292T220 268Q220 252 220 228T218 170Q210 124 195 90T155 32T97 -3T17 -15Q-9 -15 -29 -11T-50 14Q-50 29 -34 32Q4 24 28 24Q58
24 92 38Q111 58 130 80T159 135L166 211Q168 231 169 246T170 272Q170 276 170 277T170 285T169 312T166 371L149 488Q120 473 54 473Q41 477 36 498Q38 501 43 504T61 512T93 520T147 530Q170 534 182 535T196 537Q198 537 199 537T202 536Q208 536 219 537T243
540T264 543T276 545Q287 545 290 542Z" />
<glyph unicode="K" horiz-adv-x="539" d="M503 56V53Q503 45 496 40T479 35Q476 35 474 35T465 40T449 54T422 82Q377 128 363 151Q357 154 342 165T312 189T283 213T268 227Q262 230 252 238T230 254T207 270T187 280Q179 275 168 268T142 249V224Q142 168 131
130Q131 122 132 107T134 76T136 47T137 28Q137 4 131 -4T107 -13Q94 -13 89 -5Q87 17 86 42T85 95Q86 99 87 118T90 158T93 200T95 226Q92 233 92 248Q92 251 93 261T95 283T97 307T98 327V335Q100 340 101 358T104 396T106 433T107 455Q111 492 116 548Q125 567
143 567Q162 567 165 552Q151 492 150 440Q152 430 152 419Q152 378 140 299Q156 312 184 333T251 380T336 431T436 481Q443 481 451 475T459 459Q459 453 448 446T418 431T379 413T338 394Q339 395 324 384T291 358T254 328T231 306L271 278Q284 269 294 259T313
238L390 186Q404 174 423 155T459 117T489 81T503 56Z" />
<glyph unicode="L" horiz-adv-x="447" d="M383 75Q397 73 397 55Q397 42 393 38T380 34Q376 34 361 35T327 39T291 42T264 44Q256 44 249 44T236 42L158 49Q108 56 97 64Q92 78 91 96T89 135Q89 212 96 250T100 288V287Q100 304 97 315Q105 360 108 389T112 436V441Q112
443 112 459T116 493T128 525T150 540Q174 540 174 515Q169 499 155 415Q157 407 157 397Q157 394 156 377T152 339T149 298T147 268V260Q142 217 140 189T137 148Q137 115 145 94Q150 93 165 92T198 88T232 85T254 83Q261 83 267 84T282 85Q302 85 327 83T383
75Z" />
<glyph unicode="M" horiz-adv-x="712" d="M633 6Q632 -7 611 -7Q602 -7 597 -2Q585 62 579 148L576 195Q574 213 572 228T565 258Q564 277 562 315T554 413L498 334Q481 311 463 292T427 255Q417 239 402 222T363 184Q346 184 334 194T308 223T280 269T243 333L167
448Q167 436 165 414T160 364T153 307T146 253T140 210T137 186V170Q137 154 136 133T132 86L121 -20Q119 -32 102 -32Q88 -32 84 -25T79 7Q79 47 80 63T84 88T89 103T92 131Q94 154 95 167T96 187T97 198T97 209T99 224T104 253Q106 272 108 285T109 306V313L121
432Q121 438 123 452T128 482T138 508T156 520Q166 520 179 506T207 472T236 430T262 390Q279 364 300 324T348 229Q371 251 389 270Q405 287 419 303T437 330L506 422Q506 421 511 430T523 449T540 469T557 478Q569 478 584 469Q602 398 602 363Q602 359 602 356T601
350Q601 346 603 326T609 280T615 233T620 203Q620 150 632 66Q635 42 635 27Q635 16 633 6Z" />
<glyph unicode="N" horiz-adv-x="607" d="M516 217V202Q516 173 513 104Q513 100 513 97T514 90Q514 86 513 76T509 55T502 36T492 28Q486 28 480 29T468 36Q462 49 451 64T426 98T394 141T360 196Q352 209 346 216T332 232T312 256T285 299Q269 326 259 341T236
372T207 410T161 475Q160 470 159 449T157 403T153 358T149 334Q147 309 144 271T136 180V175Q136 156 126 122L110 67Q102 52 88 52Q74 52 70 68Q75 95 81 130T93 211Q94 229 96 246T102 289T109 348T115 435Q116 459 117 476T122 504T136 521T163 529Q176 521
198 489L229 441Q245 422 269 392T328 317Q368 261 400 214T455 125Q463 146 468 179T474 254Q474 268 474 274T473 287T470 304T465 338Q462 356 461 368T460 388Q460 397 462 403Q459 454 450 539Q456 564 472 564Q486 564 495 549Q501 394 514 352Q514 328 514
295T516 217Z" />
<glyph unicode="O" horiz-adv-x="567" d="M507 192Q490 135 434 76Q428 73 417 64T385 46T336 30T267 22Q192 22 142 59T61 184Q60 191 60 198T60 214Q60 276 73 324T107 409T158 469T219 509Q272 523 320 523Q342 523 363 520Q388 509 413 488T460 434T494 360T509
267Q508 278 508 286T508 299V310Q507 310 507 192ZM460 182Q464 208 466 228T468 261Q468 306 455 347T422 420T379 469T334 488Q265 488 213 456T139 367Q107 280 107 222Q107 192 117 163T146 112T193 76T255 62Q304 62 338 71T395 96T433 134T460 182Z" />
<glyph unicode="P" horiz-adv-x="482" d="M436 353Q434 337 431 325T422 301T404 277T373 248Q353 231 339 223T308 210T270 200T218 183Q182 170 150 170H144Q144 129 145 105T148 63T151 32T153 -1Q153 -8 153 -17T153 -34T147 -49T132 -55Q120 -55 115 -43T108
-10T105 35T103 84L99 154V160Q99 166 98 177T96 201T94 223T93 237V235Q91 235 94 264T97 350Q97 392 91 421V420Q90 424 90 430Q89 435 89 442T89 459Q89 478 95 493Q117 500 148 500H159Q211 515 252 515Q271 515 334 503L379 482Q395 473 405 464T423 442T433
407T436 353ZM385 330Q387 349 388 361T390 378Q390 413 370 435T295 474Q274 480 251 480Q219 480 140 456Q139 448 139 442T139 428Q139 393 141 366T144 325Q143 323 143 213H154Q168 213 183 214T212 220L257 234Q358 257 385 330Z" />
<glyph unicode="Q" horiz-adv-x="587" d="M547 16Q542 -13 526 -14Q521 -12 509 -3T480 18T448 43T419 66Q404 55 383 43T336 15Q291 2 244 2Q217 2 197 7T161 23T128 53T92 100Q59 143 59 227Q59 291 73 342T110 431T164 496T230 539Q256 546 280 549T331 553Q352
553 375 550Q408 535 435 508T481 444T511 366T522 279Q522 267 514 242T495 190T471 140T450 107Q460 96 467 90T485 75T509 53T547 16ZM475 262Q476 269 476 276T477 292Q477 317 469 353T445 423T405 483T348 518Q262 518 205 473T118 333Q105 293 105 241Q105
138 162 74Q168 119 179 142T204 177T234 189T268 191Q291 191 306 188T336 179T370 160T421 130Q463 191 475 262ZM392 92Q387 94 378 101T358 116T337 132T321 141Q280 153 261 153Q253 153 243 151T224 140T209 116T202 72Q202 62 209 56T226 45T249 40T273
38Q285 38 296 39T321 46T352 63T392 92Z" />
<glyph unicode="R" horiz-adv-x="513" d="M474 12Q471 -4 455 -4Q453 -4 450 -4T440 1T424 19T397 54L345 128Q343 133 334 148T313 181T291 215T279 241Q274 241 260 240T230 237T199 234T177 233Q158 233 143 236Q138 183 135 152T132 110Q132 100 132 91T133
71Q133 60 133 42T131 4T125 -28T111 -42Q96 -42 85 -28L88 74Q89 85 90 104T92 152T95 222T99 318Q99 326 101 342T107 378T112 415T114 444Q114 451 114 457T113 471Q114 484 114 497T116 519T125 535T144 541Q164 541 185 535Q206 537 223 537T253 537Q263 537
272 537T290 535T309 532T334 525L379 497Q413 473 426 446T439 376Q437 360 436 350T429 332T413 314T384 289Q368 276 353 268T324 254Q326 245 336 227T359 188T382 151T395 125Q418 114 474 12ZM390 360Q392 369 392 376T392 389Q392 397 389 409T375 437T346
467T295 496Q271 506 247 506Q241 506 230 505T207 501T182 497T163 495Q162 480 161 458T158 406L156 392Q154 387 151 359T146 277Q168 271 195 271Q228 271 260 278T318 297T363 326T390 360Z" />
<glyph unicode="S" horiz-adv-x="513" d="M433 189Q432 161 431 145T429 117T424 97T414 75Q372 -17 239 -17Q209 -17 189 -14T151 -5T115 10T68 31Q49 39 35 50T20 73Q20 92 39 96L89 78Q105 72 116 64T136 48Q196 25 253 25Q262 25 277 28T307 38T337 51T357
67Q364 83 370 109T376 169Q376 188 365 207T337 241T297 268T251 284Q222 293 134 341Q93 403 93 435Q93 502 179 567Q209 578 239 587T294 596Q300 596 315 591T346 576T374 556T386 535Q386 519 367 518Q364 518 353 524T327 538T298 552T274 559Q247 559 224
548T182 519T154 482T143 442Q143 413 160 386T201 346Q206 343 223 338T264 323T314 302T365 274T407 236T433 189Z" />
<glyph unicode="T" horiz-adv-x="487" d="M451 459Q441 457 433 457Q427 457 414 458T387 462T362 465T350 467Q315 467 255 452L271 321Q276 274 277 237T280 171V145Q281 126 281 110T282 80Q282 52 280 35T273 9T262 -3T246 -6Q237 -6 234 2T229 21T227 44T228
63Q228 100 234 132Q234 133 233 163T227 253L225 331Q221 386 201 446Q179 444 156 442T111 438T74 432T50 426Q30 428 30 448Q30 456 34 463Q45 465 87 472T203 494L258 500Q283 503 308 503Q349 503 384 501T450 496Q457 490 457 481Q457 471 451 459Z" />
<glyph unicode="U" horiz-adv-x="578" d="M484 337Q477 265 470 210T445 121Q427 89 407 69T365 37T322 21T280 17Q238 17 204 33T146 92L118 150Q108 187 102 219T93 281T90 337T89 391Q89 403 88 422T88 459T96 491T117 504Q135 504 143 487Q141 473 140 451T139
396Q139 344 140 309T143 267Q144 250 149 227T160 180T175 137T189 109Q214 77 282 61Q324 73 352 90T398 133T423 194T430 278Q430 338 436 383L433 457V474Q433 497 435 511T459 525Q469 525 475 519T483 502T486 481T487 460Q487 454 486 442T485 415T483 388T482
368Q482 360 482 352T484 337Z" />
<glyph unicode="V" horiz-adv-x="543" d="M503 529Q502 508 497 477T483 414T465 354T446 307Q436 290 422 261T385 191L328 93Q313 67 300 50T276 24Q258 26 252 28T241 36Q201 83 173 161Q159 180 148 199T128 237L92 325Q69 378 56 417T40 485Q41 507 65 507Q71
507 78 495T93 465T108 424T122 381T133 343T142 319Q155 290 168 264T193 216Q213 164 260 87Q274 98 291 122T326 176T362 242T395 311T422 375T440 428Q446 451 452 479T467 539Q471 540 474 540T480 541Q495 541 503 529Z" />
<glyph unicode="W" horiz-adv-x="753" d="M731 509Q730 496 726 476T717 435T706 394T695 365Q688 340 676 308T647 241T613 172T577 109T542 60T513 32Q496 57 478 93T443 178Q432 188 421 206T399 251L359 350Q355 342 349 324T335 284T320 237T305 191T293
153T284 130Q276 114 271 103T261 83Q257 73 253 67Q234 30 216 18Q206 25 194 44T170 86T151 131T141 167L74 342Q73 355 70 369T62 398T54 428T50 457Q50 489 72 489Q87 489 101 476V469Q101 458 104 435T110 389T116 349T119 334Q131 305 142 273T167 203L185
150Q190 135 196 122T211 97Q216 100 225 117T244 154T262 190T272 209Q274 222 278 236T289 267L309 324Q315 372 331 402Q330 405 330 410Q330 430 353 430Q360 430 366 420T378 395T386 368T393 349L421 289Q432 264 442 247T460 222L486 167Q495 147 505 133T525
108Q566 155 615 268Q620 279 627 300T641 348T657 402T673 455T687 497T696 521Q699 522 705 522Q722 522 731 509Z" />
<glyph unicode="X" horiz-adv-x="554" d="M504 23V17Q504 6 498 -1T484 -8Q476 -8 469 -2L400 97Q378 120 348 154T276 237Q258 210 238 186T193 131T138 60T69 -41Q64 -42 60 -42T51 -43Q20 -43 20 -19Q23 -13 32 1T51 30T71 58T82 74Q99 95 112 109T141 141T180
187T241 268Q226 281 211 293T176 322T130 365T67 429Q77 456 91 456Q99 456 113 445T143 418T172 389T192 370Q215 352 225 333Q241 330 271 297Q276 301 285 312T303 334T320 355T330 364Q342 372 359 394L387 428Q399 440 410 452T432 475T450 491T462 498Q470
498 477 491T484 477Q484 472 478 461T450 428L396 373Q394 372 381 357T351 324T319 289T300 268L374 189Q383 174 391 167T412 145T447 104T504 23Z" />
<glyph unicode="Y" horiz-adv-x="489" d="M479 515Q473 501 469 494T456 477T432 452T390 406Q370 383 353 368T323 342Q299 315 252 278Q252 259 251 233T249 174Q249 165 250 152T252 124T255 98T256 80V74L260 -18Q257 -27 242 -27Q233 -27 227 -18T218 5T213
37T212 74Q212 94 215 105Q211 145 210 176T208 230Q208 238 208 244T209 256Q203 264 189 279T157 313T124 347T101 373Q96 384 84 398T60 427T39 454T29 474Q29 482 36 489T53 496Q67 496 87 468T130 402Q133 400 146 387T176 359T206 330T227 315Q233 317 247
327T277 350T306 372T322 385Q323 386 329 395T343 415T361 438T379 455Q378 454 386 466T406 494T431 525T454 546Q479 529 479 515Z" />
<glyph unicode="Z" horiz-adv-x="511" d="M447 77Q461 74 461 59Q461 31 436 31Q433 31 413 33T367 38T317 43T283 45H265Q254 45 237 45T198 47T152 51T103 57Q53 58 40 90Q48 104 147 227L203 289Q240 329 266 370Q300 404 359 472L264 478H250Q229 478 208
477T166 473T128 468T98 466Q93 469 91 476T88 491Q88 497 95 502T120 511T169 517T248 520Q282 520 321 516T406 500Q408 494 409 489T410 479Q410 471 398 454T366 416T325 372T283 327Q278 319 246 275T149 153Q117 115 109 103Q160 93 198 88T261 83H273Q343
78 447 77Z" />
<glyph unicode="[" horiz-adv-x="520" d="M382 -102Q366 -104 350 -105T317 -107Q308 -107 302 -107T288 -107T270 -105T243 -100Q235 -99 230 -99T221 -98H218Q200 -98 191 -95T177 -85T171 -65T170 -35Q170 -18 172 0T174 47Q174 79 173 110T171 168T169 214T168
240Q168 278 168 316T167 393Q167 451 167 483T168 523L171 564Q178 608 192 628Q232 633 280 638T370 643Q384 643 384 628Q384 608 368 607Q308 607 271 602T225 590Q221 564 216 512T211 381Q211 362 212 332T215 259V225Q215 192 216 147T219 59T224 -17T230
-57L296 -62Q305 -65 323 -65Q326 -65 329 -65T337 -64Q362 -64 377 -65T393 -84Q393 -100 382 -102Z" />
<glyph unicode="\" horiz-adv-x="459" d="M419 -65Q418 -81 403 -81Q395 -81 386 -71T369 -47T354 -16T344 14Q327 42 315 65T293 106T278 140T267 170Q253 177 234 224L198 307Q177 348 158 381T121 447T83 516T40 599Q43 619 61 619Q72 619 86 602T109 567L137
511L181 439Q200 401 200 379Q213 366 233 326L260 271Q289 195 331 127Q412 -4 419 -65Z" />
<glyph unicode="]" horiz-adv-x="520" d="M353 151Q353 93 353 61T352 22L349 -19Q342 -64 328 -84Q307 -87 280 -89T227 -94T180 -97T150 -99Q136 -99 136 -84Q136 -72 145 -68T167 -62T193 -60T215 -61Q281 -57 296 -45Q299 -21 303 31T308 164Q308 201 305
285V319Q305 353 304 398T301 487T297 562T291 601L224 606Q219 607 213 607T197 608H182Q158 608 143 609T127 628Q127 638 135 643T156 649T181 651T203 651Q212 651 218 651T232 651T250 649T277 644Q292 641 298 641Q300 641 300 641T302 642Q320 642 329 639T343
629T348 609T349 579Q349 562 348 544T346 496Q346 464 347 433T349 375T351 330T352 304Q352 266 353 228T353 151Z" />
<glyph unicode="^" horiz-adv-x="584" d="M462 490Q462 488 462 487T463 484Q463 474 455 468T437 461Q433 461 423 472T401 499T381 527T369 543Q359 549 287 644Q270 626 251 600T205 539L148 462Q146 460 143 460Q144 460 141 461T133 465T124 472T120 481Q120
493 134 514T167 558T205 603T234 637Q237 641 243 649T255 666T269 681T284 688Q295 688 319 664T371 606T423 540T462 490Z" />
<glyph unicode="_" horiz-adv-x="320" d="M354 -152Q349 -153 343 -153T329 -154Q323 -154 307 -153T273 -151T240 -149T219 -148H200Q177 -148 150 -149T91 -152L-19 -158Q-40 -157 -40 -139Q-40 -129 -36 -124T-18 -117T19 -114T83 -111Q88 -111 94 -111T109
-112Q149 -112 217 -109L350 -117Q360 -123 360 -135Q360 -145 354 -152Z" />
<glyph unicode="a" horiz-adv-x="466" d="M436 80Q445 74 445 66Q445 58 436 50T417 40Q400 47 392 57T373 77Q361 88 350 115T330 189Q322 171 312 142T286 84T245 36T182 15Q164 15 147 21T117 36T96 51T88 58Q72 74 64 94T55 144Q55 165 62 191T81 245T112
297T153 341Q233 370 261 370Q283 397 298 397Q306 397 313 382T328 343T340 293T348 242Q350 238 352 229T356 211T360 193T363 183Q379 118 436 80ZM306 237Q304 247 299 272T283 340Q263 335 244 334T205 326T165 301T123 244Q96 196 96 136Q102 120 108 108T125
87T148 68T183 49Q203 53 216 59T239 74T257 99T278 139Q293 171 299 195T306 237Z" />
<glyph unicode="b" horiz-adv-x="463" d="M384 276Q408 231 408 192Q407 178 405 164T396 136L374 90L341 57Q311 27 280 18T231 8Q202 8 163 32Q150 10 133 10Q126 10 117 13Q118 27 118 44T119 82Q118 86 117 100T113 134T109 176T106 217T102 251T99 268L83
393Q77 438 69 470T60 519Q60 541 79 541Q93 541 101 527T114 487T124 424T134 341Q137 313 138 294T140 265Q201 309 222 314Q237 322 257 325T303 329Q321 324 334 319T356 308T371 294T384 276ZM358 153Q365 184 365 203Q365 213 360 228T345 257T320 281T285
291Q252 291 151 235Q155 186 160 95Q176 43 220 43Q236 43 258 52T300 76T337 111T358 153Z" />
<glyph unicode="c" horiz-adv-x="427" d="M389 90Q369 51 330 30T232 9Q219 9 190 13T131 33T78 78T55 157Q55 199 68 243T115 325Q124 335 133 345T152 366Q211 400 267 400Q295 400 310 398T333 391T342 381T343 369Q343 346 316 346L285 354Q269 358 253 358Q237
358 218 351T179 327T142 287T113 228Q100 189 100 165Q100 127 121 104T169 68T220 51T250 47Q276 47 300 62T358 111Q362 115 369 115Q378 115 383 107T389 90Z" />
<glyph unicode="d" horiz-adv-x="477" d="M397 507Q395 496 394 482T393 449Q393 435 394 418T395 387Q395 357 392 339Q394 329 394 319Q394 316 393 307T391 287T389 264T388 245Q388 243 388 242T389 238Q382 213 377 156T364 24Q357 7 339 7Q331 7 321 10L311
41Q265 13 202 13Q169 13 142 24T96 54T66 100T55 158Q55 176 59 193T71 225T86 253T103 274Q123 294 161 311T244 328Q284 328 345 302Q344 312 344 321T344 340Q344 393 350 438L344 506Q344 511 344 515T343 523Q343 533 343 543T346 561T353 574T369 579Q376
579 380 578T386 571T391 549T397 507ZM340 254Q303 290 242 290Q212 290 192 285T157 270T133 242T113 201Q104 177 104 155Q104 110 137 81T225 51Q270 51 317 87Q322 107 329 136T336 201Q335 207 335 212T335 222Q335 233 336 239T340 254Z" />
<glyph unicode="e" horiz-adv-x="478" d="M420 40Q405 26 387 12T348 -13T306 -30T265 -37Q246 -37 222 -34T166 -23Q147 -10 127 9T91 51T65 100T54 155Q54 171 63 233Q72 249 81 265T102 296T129 325T166 351Q200 359 224 363T264 367Q292 367 310 359T353 326L384
294V286Q384 251 377 231T348 198T291 175T197 152H193Q181 152 160 149T108 139Q128 72 163 37T245 2Q310 2 393 67Q397 71 403 71Q422 71 422 50Q422 46 420 40ZM340 275Q305 332 260 332Q219 332 181 314T124 266L114 234Q110 221 109 208T106 180Q134 186 159
188T208 192T252 200T293 216Q339 241 340 275Z" />
<glyph unicode="f" horiz-adv-x="352" d="M314 342L258 337Q255 337 247 336T227 334T204 332T180 331Q181 310 183 281T189 222T195 165T201 119Q199 111 199 101T199 78Q199 50 202 10Q190 -3 176 -3Q165 -3 159 8Q159 17 159 29T160 57Q160 72 160 89T159 128V134Q159
162 147 218L138 324Q125 324 107 322T65 316H59Q49 316 40 315T30 314Q16 317 16 334Q16 347 29 350H28Q34 350 42 351Q49 352 59 353T83 356Q91 357 99 358Q106 359 114 359T131 360H137L127 481Q127 499 135 521T160 574Q170 580 178 585T198 594T230 602T281
610Q291 610 295 606T300 591Q300 581 295 577T278 570T250 564T211 552Q188 544 182 526T170 489Q170 487 170 479T171 460T171 441T172 428V422Q172 412 173 399T180 367Q210 367 226 368T253 372T268 375T283 377Q292 377 306 375T320 357Q320 346 314 342Z"
/>
<glyph unicode="g" horiz-adv-x="504" d="M424 350Q426 342 427 334T428 315Q428 296 425 273T417 220Q418 216 418 204Q418 193 417 178T413 141Q414 136 414 130T414 115Q414 89 411 52T403 -33Q389 -146 310 -198Q241 -218 192 -218Q172 -218 143 -210T73 -187Q69
-185 57 -177T33 -160T10 -140T0 -122Q0 -98 22 -98Q29 -98 36 -102L99 -152Q144 -179 201 -180Q211 -180 243 -172L284 -162Q297 -155 309 -142T332 -113T350 -78T360 -40V-35Q360 -26 362 -5T367 40T372 87T375 120Q342 94 291 69Q208 48 174 48Q169 48 165 48T154
53T134 66T99 93L75 137Q66 153 63 169T59 203Q59 226 80 251T134 298T204 334T272 348Q279 348 290 348T314 346T343 338T376 319L389 357Q402 362 409 362Q421 362 424 350ZM375 278Q365 286 355 292T332 301L292 311Q275 309 252 304T200 291Q108 238 108 187Q108
180 114 167T131 139T155 110T183 89Q193 89 216 91T267 103T322 129T368 175Q371 198 373 220T375 265V278Z" />
<glyph unicode="h" horiz-adv-x="487" d="M407 19Q395 1 382 1Q377 1 373 2T365 11T359 39T356 96Q356 106 357 109Q353 117 353 139Q353 148 353 158T354 176Q354 191 351 204T345 229T337 249T331 261Q311 297 273 297Q261 297 241 291T199 275T161 253T138
229Q135 213 132 185T127 113L125 14Q124 3 104 3Q89 3 84 17T79 65Q79 75 80 81T82 99T86 134T91 202Q92 225 93 243T93 275Q93 286 93 294T92 307Q92 308 93 324T96 360T100 401T106 429Q106 433 106 436T105 444Q105 454 106 476T112 520T124 560T146 577Q165
577 166 558Q164 533 158 492T144 388Q141 382 140 368T139 333Q139 323 139 312T140 287Q146 290 157 297T180 311T205 324T228 332Q242 334 255 335T279 337Q325 337 352 311T392 223Q393 201 394 185T398 149T402 99T407 19Z" />
<glyph unicode="i" horiz-adv-x="259" d="M180 463Q181 460 181 454Q181 438 173 429T137 418Q126 426 120 435T113 453Q113 461 128 482Q145 482 154 482T168 480T175 474T180 463ZM149 307V303Q149 292 146 272T136 221Q138 211 138 205Q138 201 137 192T133
173T130 152T128 134Q128 129 128 125T129 116Q129 99 127 81T124 57Q124 52 124 46T126 33Q122 17 105 17Q86 17 81 36T76 81Q76 104 81 127T89 180Q90 204 91 219T95 246T100 272T107 305Q115 313 128 313Q140 313 149 307Z" />
<glyph unicode="j" horiz-adv-x="256" d="M140 414Q129 399 105 394Q95 398 85 405T74 427Q74 439 82 450T103 462Q107 462 139 447Q142 433 142 425Q142 418 140 414ZM176 114V107Q176 90 174 53T166 -41Q127 -204 -12 -204Q-21 -204 -32 -203T-54 -200T-72 -193T-80
-180Q-80 -170 -73 -165T-57 -159Q-41 -165 -18 -165Q17 -165 47 -154T91 -108Q99 -89 105 -77T115 -57Q122 -21 126 3T132 42T134 67T135 84Q135 97 134 111T132 139T129 160T128 169Q121 198 118 221T112 264Q118 284 134 284Q148 284 158 274Q172 194 176 114Z"
/>
<glyph unicode="k" horiz-adv-x="428" d="M386 63Q387 60 387 55Q387 32 369 32Q359 32 348 46T322 81T286 128T236 176Q225 184 209 194T172 222L128 201Q128 194 127 182T125 156T122 132T121 117Q121 111 121 106T123 95V88Q123 77 125 54T127 -6Q127 -18 104
-18Q89 -18 84 5T78 59Q78 118 82 159T86 224V244Q86 251 87 264T91 291T94 319T96 343V355Q96 357 98 374T104 415T113 466T124 516T138 554T155 570Q175 570 175 554Q175 545 172 528T161 488Q154 453 151 427T147 384Q141 360 129 237Q149 251 177 270T242 318Q261
332 284 346T338 372Q346 372 353 368T361 354Q361 348 355 342L265 294Q263 291 254 284T232 269T210 254T197 245Q217 234 226 228T247 212T278 183T340 128Q350 116 361 100T386 63Z" />
<glyph unicode="l" horiz-adv-x="252" d="M177 541Q176 535 172 521T164 490T155 456T150 424Q149 412 147 396T141 363T135 332T131 308Q129 287 128 260T126 209T125 165T125 141Q127 123 130 101T138 52Q145 41 167 20Q152 3 131 3Q113 3 105 17T93 57T88 122T82
209Q86 216 88 232T90 266T91 298T93 319Q93 318 96 334T103 373T110 419T113 456V462Q117 479 122 501T134 550Q141 557 152 557Q167 557 177 541Z" />
<glyph unicode="m" horiz-adv-x="729" d="M649 43Q649 31 631 31Q621 31 616 42T609 72T605 116T603 168Q599 183 596 200T589 237Q572 261 549 275T496 289Q486 289 473 286T447 278T421 268T401 256Q375 234 360 165Q361 160 361 156T361 145Q361 132 360 115T356
75V70Q356 68 356 55T354 27T346 -1T329 -14Q310 -14 310 1Q310 3 312 17T316 50T320 87T322 117Q322 143 318 160V176Q318 208 311 238T290 300Q262 323 212 328Q198 325 189 321T172 308T154 281T128 234Q125 214 124 197T121 166L118 115Q124 80 124 57Q124
42 122 30T105 18Q97 18 92 21T84 36T80 71T78 135Q78 153 79 170T83 205T88 245T96 293Q93 332 80 359Q82 379 102 379Q112 379 119 369T145 321Q164 339 175 349T193 364T205 370T219 373Q234 373 242 373T259 369T278 360T305 342Q317 336 347 250Q354 259 364
272T390 298T431 320T491 329Q522 329 544 323T583 306T611 277T633 237V229Q633 219 635 197T639 153T644 114T646 99Q646 99 646 93T647 79T648 63T649 49V43Z" />
<glyph unicode="n" horiz-adv-x="474" d="M394 100V92Q394 89 394 76T392 48T385 22T367 10Q348 10 345 25Q345 26 345 47T346 109Q346 128 346 136T345 152T340 175T329 226Q323 253 313 268T289 291T262 301T235 303Q199 303 173 282T129 201Q129 184 127 162T121
112Q122 73 127 10Q124 -8 104 -8Q95 -8 90 0T81 20T77 45T76 69Q76 92 80 112L90 222Q91 234 93 248T100 280Q97 305 81 341Q81 361 105 361Q118 361 130 343T151 308Q171 323 193 331T239 340Q245 340 244 340T243 341T253 339T287 331Q359 314 373 233Q378 198
383 185L394 100Z" />
<glyph unicode="o" horiz-adv-x="422" d="M325 20Q300 4 227 -7Q220 -6 205 -5T170 4T128 31T85 88Q71 113 65 138T58 190Q58 206 65 230T89 277T132 316T195 332Q259 332 315 288Q364 224 364 143Q364 72 325 20ZM242 288Q221 297 202 297Q186 297 169 290T138
267T115 230T106 177Q106 154 112 129T133 84T168 51T220 38Q254 38 287 54Q320 97 320 149Q320 256 242 288Z" />
<glyph unicode="p" horiz-adv-x="465" d="M410 221V215Q409 200 407 185T397 156L375 115Q366 105 349 94T313 72T275 56T243 49H233Q228 49 218 48T198 45T177 42T161 40Q154 40 148 40T135 42L131 -45Q130 -51 131 -62T132 -93T130 -142T122 -213Q112 -218 103
-218Q95 -218 91 -211T85 -193T83 -172T82 -157Q82 -137 84 -121T87 -75V-30Q87 -1 88 21T92 59Q87 79 87 117Q87 148 88 172T94 211Q80 290 80 313Q80 325 84 330T104 336Q118 336 123 327T132 297Q172 321 203 329T269 337Q340 337 374 312T410 221ZM366 226Q366
254 344 276T278 299Q273 299 267 299T256 298Q240 298 234 301Q185 297 136 255Q137 244 137 233T138 207Q138 194 137 183T135 148Q135 126 135 112T138 91T144 81T155 78Q185 78 210 82T255 92T287 102T304 108Q322 118 334 134T353 168T363 202T366 226Z" />
<glyph unicode="q" horiz-adv-x="468" d="M388 -180Q386 -184 382 -187T371 -191Q363 -191 358 -180T350 -150T343 -103T336 -45V-14Q336 9 336 39T334 108Q305 84 284 71T245 50T213 41T184 39Q127 39 88 82L67 124Q60 138 58 152T55 181Q55 223 72 253T114 301T171
328T230 337Q256 337 281 333T329 321Q344 341 364 341Q376 341 377 329T379 304Q379 293 378 280T375 252Q378 226 378 201Q378 182 377 164T371 125Q375 102 377 41Q374 27 374 7Q374 -18 376 -39T378 -69V-76Q379 -81 381 -91T385 -114T388 -140T389 -162Q389
-176 388 -180ZM337 221Q337 225 337 230T338 243Q338 251 338 259T337 278Q329 285 314 289T283 297T250 301T225 303Q169 303 135 270T100 177Q100 124 127 98T202 69Q262 86 300 117T339 196Q339 202 339 208T337 221Z" />
<glyph unicode="r" horiz-adv-x="382" d="M347 340Q353 334 353 321Q353 294 332 294Q329 294 323 296Q281 310 264 310Q246 310 229 304T189 276Q164 253 153 243T139 227T136 216T137 196Q137 186 138 173T139 150Q139 142 139 135T137 123L146 14Q143 -9 124
-9Q113 -9 109 1T102 28T100 62T97 97Q98 102 98 107T99 121Q99 126 99 132T98 144L92 223Q92 227 92 230T91 236Q91 244 91 250T93 261Q88 283 86 297T83 319Q83 335 101 335Q112 335 123 321T141 290L200 331Q220 345 235 349T265 354Q287 354 310 349L347 340Z"
/>
<glyph unicode="s" horiz-adv-x="394" d="M334 103Q330 74 313 50T277 1Q268 -5 249 -10T211 -19T176 -25T158 -27Q147 -27 131 -24T100 -16T72 -8T58 -4H57Q48 -2 36 2T14 11T-3 22T-10 34Q-10 39 -4 45T10 53Q111 13 186 13Q209 13 229 23T258 45L284 88Q284
104 275 120T252 151T218 175T179 188Q151 193 128 205T83 231Q67 250 65 307Q70 339 91 356L137 383L233 392Q248 392 312 369Q318 361 318 349Q318 338 315 335T304 331Q278 340 255 346T212 353Q176 353 156 348T125 334T112 317T109 302Q109 248 153 234Q314
202 334 103Z" />
<glyph unicode="t" horiz-adv-x="347" d="M324 360Q327 355 327 350Q327 342 326 338T316 331T291 329T243 327Q194 325 181 317Q181 312 181 308T182 298Q182 286 181 274T180 252T178 234T177 225Q177 220 177 215T179 205Q177 197 176 182T175 143Q175 108
180 85T206 51L251 33Q266 28 266 16Q266 -4 246 -4Q241 -4 229 -2T202 5T176 16T159 32Q146 58 139 83T132 134Q132 165 133 180T135 204T138 222T139 251Q139 273 140 289T143 317Q135 315 120 313T89 309T57 304T35 298Q10 298 10 317Q10 326 20 331T41 340T61
344T68 345H73Q102 345 146 360Q147 376 147 391T149 427T156 474T174 540Q178 550 190 550Q205 550 210 535Q210 533 207 521T201 493T194 464T191 446Q190 423 190 401T189 359Q192 359 210 361T249 364Q253 364 255 364T259 363Q269 364 277 364T292 365Q314
365 324 360Z" />
<glyph unicode="u" horiz-adv-x="489" d="M409 377Q410 366 410 356T411 334Q411 308 409 290T403 251T395 198T386 116Q386 114 386 111T385 105Q385 94 386 80T388 53T391 32T393 25Q393 10 372 10Q362 10 357 17T349 35T346 58T345 79Q345 95 348 115Q335 103
322 91T296 66Q264 39 234 35T185 30Q134 30 107 59T80 142Q80 148 80 158T82 184Q82 186 82 188T81 192Q81 203 82 214T86 243T96 287T115 355Q122 362 131 362Q149 362 149 342Q149 336 145 321T137 288T128 251T124 221Q124 218 124 216T125 211Q123 197 122
186T120 164Q120 145 123 128T136 97T162 75T203 67Q229 67 252 78T293 107T325 145T347 183Q350 204 355 233T369 299Q368 305 368 310T368 321Q368 330 369 341T373 361T380 377T392 384Q404 384 409 377Z" />
<glyph unicode="v" horiz-adv-x="452" d="M412 362Q411 352 395 314T348 219Q336 198 329 184T318 159T312 140T305 124Q296 106 288 93T272 69Q269 61 262 49T244 26T222 7T196 -1Q164 -1 149 46Q136 60 125 81T104 123T90 158T83 176Q77 193 75 207T72 236V243Q50
309 50 344Q59 354 75 354Q82 354 86 348T94 331T99 308T104 284Q119 198 134 170Q143 135 160 107L199 46Q263 110 276 164Q288 187 294 203T308 240T331 292T378 377Q382 383 390 383Q398 383 405 376T412 362Z" />
<glyph unicode="w" horiz-adv-x="648" d="M620 378Q610 327 591 274T552 162Q552 137 494 28Q476 2 446 -8Q423 9 391 82Q381 105 367 148T333 257Q329 245 321 228T301 192T278 153T255 114T234 82T220 61Q199 31 181 23Q175 28 166 39T149 62T134 83T128 92Q122
103 115 121T101 159T88 195T77 219Q74 227 70 243T61 279T53 315T50 340Q50 361 68 361Q83 361 93 351Q103 280 119 244Q144 140 185 88Q200 103 220 138L245 184Q257 195 274 230L294 272Q321 315 345 326Q349 312 355 298T370 263T388 215T407 147Q420 111 457
43Q508 127 509 177Q516 202 526 231T552 292L575 383Q585 398 597 398Q612 398 620 378Z" />
<glyph unicode="x" horiz-adv-x="468" d="M419 50Q420 47 420 42Q420 31 415 23T403 15Q388 15 369 39T316 106Q286 120 238 189Q230 178 214 158T172 106L124 31Q121 26 117 17T106 -2T93 -19T79 -26Q57 -26 57 -13Q57 -7 62 3T74 23T86 43T94 55Q114 90 146
128T210 215Q196 225 179 239T142 271Q125 282 104 299T56 338Q56 340 56 341T55 344Q55 354 61 360T76 367Q81 367 84 366L139 323Q149 311 178 289L234 248Q248 259 259 269T278 290L298 317Q317 342 329 355T350 369Q369 369 369 353Q369 340 349 316L304 259Q303
258 264 218Q279 198 301 176T349 126L419 50Z" />
<glyph unicode="y" horiz-adv-x="473" d="M423 316Q422 283 407 257Q405 255 395 233T365 168Q362 142 346 110T305 31Q297 16 288 4T269 -21T249 -52T230 -94Q214 -117 206 -133T190 -163T171 -194T137 -232Q135 -233 130 -233Q122 -233 114 -229T106 -219Q106
-217 108 -213Q122 -193 132 -177T154 -143T179 -101T215 -42Q244 5 254 41Q243 47 231 58T205 82T180 104T160 117Q140 144 127 155T102 178T76 206T40 264Q40 273 45 282T59 291Q68 291 83 276T113 241T139 206T154 187Q165 179 183 158L211 127Q225 120 243
104T276 82Q291 100 310 146L337 214Q349 243 363 271T380 324Q393 330 403 330Q420 330 423 316Z" />
<glyph unicode="z" horiz-adv-x="399" d="M342 32Q357 23 357 8Q357 -13 338 -13Q333 -13 321 -12T294 -8T267 -5T247 -3Q230 -3 206 -1T161 4T123 9T106 11Q57 30 40 52Q45 65 75 106Q89 118 107 135T145 176Q227 237 277 313Q235 328 182 328Q168 328 148 326T85
319Q75 320 75 340Q75 350 80 358Q102 363 126 366T177 372Q232 366 253 365T283 362T296 358T325 347Q330 334 330 325Q330 316 324 304T308 281T290 259T275 245Q237 187 200 177Q195 170 181 156T150 125T119 92T102 63Q128 52 165 46T237 36T299 33T335 32H342Z"
/>
<glyph unicode="{" horiz-adv-x="420" d="M339 609Q316 602 298 597T268 585T247 568T233 539L224 486Q221 475 221 454Q221 441 222 424T223 392Q223 371 221 356T213 326T198 299T173 269Q182 261 189 253T202 235L214 207Q219 190 221 166T224 111Q224 98 223
85T221 57Q221 50 224 35T230 5T236 -20T239 -28Q283 -71 334 -71Q348 -74 348 -87Q348 -105 330 -105Q306 -105 252 -82Q216 -77 200 -50T181 10L177 61Q178 66 178 89T179 156Q179 166 176 178T168 201T160 219T157 226Q150 233 143 239T125 251L101 263Q95 264
95 274Q95 280 115 290T158 314Q165 324 169 332T175 350T177 374T178 413Q178 414 178 421T176 436T175 454T174 469Q174 491 181 494Q182 528 187 546T202 585Q224 606 259 621T336 637Q348 637 348 621Q348 612 339 609Z" />
<glyph unicode="|" horiz-adv-x="388" d="M217 306Q217 300 218 275T220 204Q220 170 215 158Q217 149 217 140T217 119Q217 96 215 72T211 24Q212 12 212 1T212 -22Q212 -34 212 -47T211 -72T205 -91T191 -99Q175 -99 171 -93Q162 -56 162 1Q162 35 166 78T171
164Q171 202 165 238Q165 240 166 257T168 297T171 338T176 364Q171 384 171 437Q171 453 171 470T171 510T174 560T182 629Q183 636 196 636Q215 636 217 626T220 593Q220 578 219 558T216 512Q217 480 217 429T217 306Z" />
<glyph unicode="}" horiz-adv-x="420" d="M322 259Q299 249 263 226Q256 215 252 208T246 190T244 166T243 127Q243 126 244 118T245 101T247 82T248 68Q248 48 242 47Q239 -32 197 -64T85 -97Q73 -97 73 -81Q73 -76 84 -70T109 -59T137 -51T154 -45Q166 -40 175
-28T188 1L197 54Q199 59 199 65T199 80Q199 94 198 115T196 154Q196 174 199 188T208 216T224 242T249 272Q239 279 230 291T213 321T201 365T196 430Q196 443 197 456T199 484Q199 490 196 505T190 534T184 559T181 568Q137 611 86 611Q73 614 73 626Q73 645
91 645Q125 645 168 623Q205 617 221 590T240 530L244 479Q243 473 243 450T242 384Q242 375 245 363T252 340T259 322T263 315Q269 308 280 301T301 288T318 275T326 265Q326 261 322 259Z" />
<glyph unicode="~" horiz-adv-x="793" d="M672 334Q671 326 668 318T659 301Q654 291 647 282Q621 253 601 234T565 204T534 187T506 182Q501 182 489 183T463 189T434 205T408 234Q379 278 355 296Q335 329 277 329Q241 329 210 296T147 206Q143 204 140 204Q121
204 121 228Q121 240 147 277L183 328Q199 341 209 348T227 359T242 366T261 370Q300 366 322 361T359 345T390 314T430 264Q461 224 496 224Q512 224 531 232T571 257T609 297T640 350Q644 360 652 360Q661 360 666 352T672 334Z" />
<glyph unicode="&#x2018;" horiz-adv-x="820" d="M684 570Q683 563 673 550T642 536Q630 536 615 546T600 580Q600 593 602 607T610 637T627 673T658 717H660Q666 717 672 711L653 669Q649 662 645 647T636 609Q640 610 648 610Q654 610 665 604T684 570Z" />
<glyph unicode="&#x2019;" horiz-adv-x="820" d="M217 661Q220 655 220 645Q220 631 218 617T210 588T193 553T162 508H160Q154 508 148 514L167 556Q171 563 175 578T184 616Q180 615 172 615Q164 615 146 627L136 655Q137 661 147 675T178 689Q202 689 217 661Z" />
<glyph unicode="&#x201c;" horiz-adv-x="820" d="M684 570Q683 563 673 550T642 536Q630 536 615 546T600 580Q600 593 602 607T610 637T627 673T658 717H660Q666 717 672 711L653 669Q649 662 645 647T636 609Q640 610 648 610Q654 610 665 604T684 570ZM554
570Q553 563 543 550T512 536Q500 536 485 546T470 580Q470 593 472 607T480 637T497 673T528 717H530Q536 717 542 711L523 669Q519 662 515 647T506 609Q510 610 518 610Q524 610 535 604T554 570Z" />
<glyph unicode="&#x201d;" horiz-adv-x="820" d="M347 661Q350 655 350 645Q350 631 348 617T340 588T323 553T292 508H290Q284 508 278 514L297 556Q301 563 305 578T314 616Q310 615 302 615Q294 615 276 627L266 655Q267 661 277 675T308 689Q332 689 347 661ZM217
661Q220 655 220 645Q220 631 218 617T210 588T193 553T162 508H160Q154 508 148 514L167 556Q171 563 175 578T184 616Q180 615 172 615Q164 615 146 627L136 655Q137 661 147 675T178 689Q202 689 217 661Z" />
</font>
</defs>
</svg>
