<?xml version="1.0" encoding="utf-8"?>
<svg version="1.1" baseProfile="tiny" xmlns="http://www.w3.org/2000/svg" xmlns:xlink="http://www.w3.org/1999/xlink" x="0px" y="0px" viewBox="0 100 277.7 220.7" overflow="visible" xml:space="preserve">
  <g id="tush">
    <path id="body" fill="#EE2A7B" stroke="#000" stroke-width="2.8346" stroke-linecap="round" stroke-linejoin="round" stroke-miterlimit="10" d="M147.1,244.3c2.7,4.2,8.4,11.6,16.9,16.9c2.1,1.3,24.6,15,47,4.8c16-7.3,22.2-22.5,25.3-30c8.1-20,4.3-38.3,1.3-52.8c-2.1-9.9-6.5-25.3-17-42.3c-17.9-6.1-48.5-16.2-85.3-14.5c-42,2-92.1,23.9-92.1,23.9s-13.4,42.9-5.3,73.8 c1.6,6.1,4.4,16.2,12.5,26.5c3.1,4,10.4,13,23.3,18.5c17.3,7.4,33,3.6,39.3,2c6.1-1.6,20.9-5.4,29.5-17.8 C145,249.6,146.6,245.7,147.1,244.3c3.3-8.7,3.8-15.7,3.8-20.2c0-4.6-0.3-6.3-1.6-12.8"/>
    <g id="limbs" stroke="#000" stroke-width="5.6693" stroke-linecap="round" stroke-linejoin="round" stroke-miterlimit="10">
      <line class="left  arm" x1="3.9" y1="158.7" x2="52.1" y2="207.4"/>
      <line class="right arm" x1="90.7" y1="269.2" x2="89.6" y2="317.9"/>
      <line class="left  leg" x1="197.4" y1="265.4" x2="197.4" y2="313.7"/>
      <line class="right leg" x1="233.5" y1="193.7" x2="274.9" y2="143.7"/>
    </g>
    <g class="left eye">
      <circle cx="195" cy="171.1" r="5.5"/>
      <rect fill="#FFF" x="193.4" y="167.7" width="4.9" height="4.9" transform="matrix(0.7071 0.7071 -0.7071 0.7071 177.6628 -88.6174)" />
    </g>
    <g class="right eye">
      <circle cx="96.2" cy="162.7" r="5.5"/>
      <rect fill="#FFF" x="94.7" y="159" width="4.9" height="4.9" transform="matrix(0.7071 0.7071 -0.7071 0.7071 142.6375 -21.4131)"/>
    </g>
    <path id="mouth" d="M136.6,181.7c3.4,0.4,7.7,0.9,12,0.8c3.8,0,10.3-0.8,10.3-0.8s1.3,6.6-1.5,10.1c-4.3,5.4-14.9,4.7-19.1-1C135.8,187.3,136.4,183,136.6,181.7z"/>
  </g>
</svg>